# xmcd
#
# Track frame offsets: 
#        150
#        12817
#        24054
#        37189
#        49804
#        65513
#        77270
#        91081
#        103774
#        126009
#        142342
#        155997
#        173292
#        200389
#
# Disc length: 2985 seconds
#
# Revision: 0
# Processed by: cddbd v1.5.2PL0 Copyright (c) Steve Scherf et al.
# Submitted via: ExactAudioCopy v0.95b4
#
DISCID=ae0ba70e
DTITLE=Muddy Waters - The Blues Biography
DYEAR=1900
DGENRE=Blues
TTITLE0=Mean Mistreater
TTITLE1=I Can't Call Her Sugar
TTITLE2=Can't Lose What You Ain't Never Had
TTITLE3=Stuff You Gotta Watch
TTITLE4=Iodine in My Coffee
TTITLE5=You Gonna Miss Me
TTITLE6=Close to You
TTITLE7=Baby Please Don't Go
TTITLE8=Soon Forgotten
TTITLE9=Corrina Corrina
TTITLE10=I'm Your Hoochie Coochie Man
TTITLE11=Blow Wind Blow
TTITLE12=Caldonia
TTITLE13=Screamin' and Cryin'
EXTD=
EXTT0=
EXTT1=
EXTT2=
EXTT3=
EXTT4=
EXTT5=
EXTT6=
EXTT7=
EXTT8=
EXTT9=
EXTT10=
EXTT11=
EXTT12=
EXTT13=
PLAYORDER=
